<svg width="80" height="78" viewBox="0 0 80 78" fill="none" xmlns="http://www.w3.org/2000/svg">
<path d="M75.9375 0.71875H4.0625C2.33398 0.71875 0.9375 2.0873 0.9375 3.78125V74.2188C0.9375 75.9127 2.33398 77.2812 4.0625 77.2812H75.9375C77.666 77.2812 79.0625 75.9127 79.0625 74.2188V3.78125C79.0625 2.0873 77.666 0.71875 75.9375 0.71875ZM72.8125 71.1562H54.834V47.6324H64.9902L66.5137 36.0811H54.834V28.7023C54.834 25.3527 55.7813 23.075 60.6738 23.075H66.9141V12.7391C65.8301 12.5955 62.1289 12.2797 57.8125 12.2797C48.8086 12.2797 42.6465 17.6678 42.6465 27.5539V36.0715H32.4707V47.6228H42.6563V71.1562H7.1875V6.84375H72.8125V71.1562Z" fill="white"/>
</svg>
