<svg width="100" height="98" viewBox="0 0 100 98" fill="none" xmlns="http://www.w3.org/2000/svg">
<path d="M85.9375 10.7188H14.0625C12.334 10.7188 10.9375 12.0873 10.9375 13.7812V84.2188C10.9375 85.9127 12.334 87.2812 14.0625 87.2812H85.9375C87.666 87.2812 89.0625 85.9127 89.0625 84.2188V13.7812C89.0625 12.0873 87.666 10.7188 85.9375 10.7188ZM82.8125 81.1562H64.834V57.6324H74.9902L76.5137 46.0811H64.834V38.7023C64.834 35.3527 65.7813 33.075 70.6738 33.075H76.9141V22.7391C75.8301 22.5955 72.1289 22.2797 67.8125 22.2797C58.8086 22.2797 52.6465 27.6678 52.6465 37.5539V46.0715H42.4707V57.6228H52.6563V81.1562H17.1875V16.8438H82.8125V81.1562Z" fill="white"/>
</svg>
