<svg width="100" height="98" viewBox="0 0 100 98" fill="none" xmlns="http://www.w3.org/2000/svg">
<path d="M70.8333 12.25H29.1667C24.7464 12.25 20.5072 13.9708 17.3816 17.0339C14.2559 20.097 12.5 24.2515 12.5 28.5833V69.4167C12.5 73.7485 14.2559 77.903 17.3816 80.9661C20.5072 84.0292 24.7464 85.75 29.1667 85.75H70.8333C75.2536 85.75 79.4928 84.0292 82.6184 80.9661C85.744 77.903 87.5 73.7485 87.5 69.4167V28.5833C87.5 24.2515 85.744 20.097 82.6184 17.0339C79.4928 13.9708 75.2536 12.25 70.8333 12.25Z" stroke="white" stroke-width="4" stroke-linejoin="round"/>
<path d="M50 65.3334C54.4203 65.3334 58.6595 63.6126 61.7851 60.5495C64.9107 57.4864 66.6667 53.332 66.6667 49.0001C66.6667 44.6682 64.9107 40.5138 61.7851 37.4507C58.6595 34.3876 54.4203 32.6667 50 32.6667C45.5797 32.6667 41.3405 34.3876 38.2149 37.4507C35.0893 40.5138 33.3333 44.6682 33.3333 49.0001C33.3333 53.332 35.0893 57.4864 38.2149 60.5495C41.3405 63.6126 45.5797 65.3334 50 65.3334V65.3334Z" stroke="white" stroke-width="4" stroke-linejoin="round"/>
<path d="M72.9167 30.6249C74.0217 30.6249 75.0815 30.1947 75.863 29.4289C76.6444 28.6632 77.0833 27.6246 77.0833 26.5416C77.0833 25.4586 76.6444 24.42 75.863 23.6542C75.0815 22.8885 74.0217 22.4583 72.9167 22.4583C71.8116 22.4583 70.7518 22.8885 69.9704 23.6542C69.189 24.42 68.75 25.4586 68.75 26.5416C68.75 27.6246 69.189 28.6632 69.9704 29.4289C70.7518 30.1947 71.8116 30.6249 72.9167 30.6249Z" fill="white"/>
</svg>
