<svg width="80" height="78" viewBox="0 0 80 78" fill="none" xmlns="http://www.w3.org/2000/svg">
<path d="M60.8333 2.25H19.1667C14.7464 2.25 10.5072 3.97083 7.38155 7.03392C4.25595 10.097 2.5 14.2515 2.5 18.5833V59.4167C2.5 63.7485 4.25595 67.903 7.38155 70.9661C10.5072 74.0292 14.7464 75.75 19.1667 75.75H60.8333C65.2536 75.75 69.4928 74.0292 72.6184 70.9661C75.744 67.903 77.5 63.7485 77.5 59.4167V18.5833C77.5 14.2515 75.744 10.097 72.6184 7.03392C69.4928 3.97083 65.2536 2.25 60.8333 2.25Z" stroke="white" stroke-width="4" stroke-linejoin="round"/>
<path d="M40 55.3334C44.4203 55.3334 48.6595 53.6126 51.7851 50.5495C54.9107 47.4864 56.6667 43.332 56.6667 39.0001C56.6667 34.6682 54.9107 30.5138 51.7851 27.4507C48.6595 24.3876 44.4203 22.6667 40 22.6667C35.5797 22.6667 31.3405 24.3876 28.2149 27.4507C25.0893 30.5138 23.3333 34.6682 23.3333 39.0001C23.3333 43.332 25.0893 47.4864 28.2149 50.5495C31.3405 53.6126 35.5797 55.3334 40 55.3334V55.3334Z" stroke="white" stroke-width="4" stroke-linejoin="round"/>
<path d="M62.9167 20.6249C64.0217 20.6249 65.0815 20.1947 65.863 19.4289C66.6444 18.6632 67.0833 17.6246 67.0833 16.5416C67.0833 15.4586 66.6444 14.42 65.863 13.6542C65.0815 12.8885 64.0217 12.4583 62.9167 12.4583C61.8116 12.4583 60.7518 12.8885 59.9704 13.6542C59.189 14.42 58.75 15.4586 58.75 16.5416C58.75 17.6246 59.189 18.6632 59.9704 19.4289C60.7518 20.1947 61.8116 20.6249 62.9167 20.6249Z" fill="white"/>
</svg>
