<svg width="206" height="37" viewBox="0 0 206 37" fill="none" xmlns="http://www.w3.org/2000/svg">
<path d="M11.48 10.472H27.848V13.136H11.48V10.472ZM18.08 12.8H21.272V26H18.08V12.8ZM29.8381 14.072H32.9581V26H29.8381V14.072ZM37.5421 16.64C36.6461 16.64 35.8701 16.816 35.2141 17.168C34.5581 17.504 34.0301 17.92 33.6301 18.416C33.2301 18.912 32.9501 19.392 32.7901 19.856L32.7661 18.536C32.7821 18.344 32.8461 18.064 32.9581 17.696C33.0701 17.312 33.2381 16.904 33.4621 16.472C33.6861 16.024 33.9821 15.6 34.3501 15.2C34.7181 14.784 35.1661 14.448 35.6941 14.192C36.2221 13.936 36.8381 13.808 37.5421 13.808V16.64ZM46.5989 26.264C45.4149 26.264 44.3349 26.008 43.3589 25.496C42.3989 24.968 41.6309 24.24 41.0549 23.312C40.4949 22.368 40.2149 21.28 40.2149 20.048C40.2149 18.784 40.5029 17.688 41.0789 16.76C41.6549 15.832 42.4309 15.112 43.4069 14.6C44.3989 14.072 45.5189 13.808 46.7669 13.808C48.1429 13.808 49.2469 14.088 50.0789 14.648C50.9269 15.192 51.5429 15.936 51.9269 16.88C52.3109 17.824 52.5029 18.88 52.5029 20.048C52.5029 20.752 52.3909 21.472 52.1669 22.208C51.9429 22.928 51.5989 23.6 51.1349 24.224C50.6709 24.832 50.0629 25.328 49.3109 25.712C48.5589 26.08 47.6549 26.264 46.5989 26.264ZM47.6069 23.864C48.5509 23.864 49.3669 23.704 50.0549 23.384C50.7429 23.064 51.2709 22.616 51.6389 22.04C52.0069 21.464 52.1909 20.8 52.1909 20.048C52.1909 19.232 51.9989 18.544 51.6149 17.984C51.2469 17.408 50.7189 16.976 50.0309 16.688C49.3589 16.384 48.5509 16.232 47.6069 16.232C46.2789 16.232 45.2469 16.584 44.5109 17.288C43.7749 17.976 43.4069 18.896 43.4069 20.048C43.4069 20.816 43.5829 21.488 43.9349 22.064C44.2869 22.624 44.7749 23.064 45.3989 23.384C46.0389 23.704 46.7749 23.864 47.6069 23.864ZM52.1909 14.072H55.3109V26H52.4069C52.4069 26 52.3829 25.848 52.3349 25.544C52.3029 25.224 52.2709 24.824 52.2389 24.344C52.2069 23.864 52.1909 23.392 52.1909 22.928V14.072ZM66.0307 23.96H64.9027L69.2707 14.072H72.6787L66.9427 26H63.9907L58.3747 14.072H61.8067L66.0307 23.96ZM86.1545 22.04H89.1785C89.0505 22.856 88.7065 23.584 88.1465 24.224C87.6025 24.864 86.8585 25.368 85.9145 25.736C84.9705 26.104 83.8185 26.288 82.4585 26.288C80.9385 26.288 79.5945 26.048 78.4265 25.568C77.2585 25.072 76.3465 24.36 75.6905 23.432C75.0345 22.504 74.7065 21.384 74.7065 20.072C74.7065 18.76 75.0265 17.64 75.6665 16.712C76.3065 15.768 77.1945 15.048 78.3305 14.552C79.4825 14.056 80.8265 13.808 82.3625 13.808C83.9305 13.808 85.2345 14.056 86.2745 14.552C87.3145 15.048 88.0825 15.8 88.5785 16.808C89.0905 17.8 89.3065 19.072 89.2265 20.624H77.8505C77.9305 21.232 78.1545 21.784 78.5225 22.28C78.9065 22.776 79.4185 23.168 80.0585 23.456C80.7145 23.744 81.4905 23.888 82.3865 23.888C83.3785 23.888 84.2025 23.72 84.8585 23.384C85.5305 23.032 85.9625 22.584 86.1545 22.04ZM82.2185 16.184C81.0665 16.184 80.1305 16.44 79.4105 16.952C78.6905 17.448 78.2265 18.064 78.0185 18.8H86.1305C86.0505 18 85.6665 17.368 84.9785 16.904C84.3065 16.424 83.3865 16.184 82.2185 16.184ZM93.1081 9.272H96.2281V26H93.1081V9.272ZM113.184 24.416H111.672L120.6 10.472H123.792V26H120.6V14.72L121.368 14.936L114.24 26H110.664L103.536 14.984L104.304 14.768V26H101.112V10.472H104.304L113.184 24.416ZM134.199 26.264C133.015 26.264 131.935 26.008 130.959 25.496C129.999 24.968 129.231 24.24 128.655 23.312C128.095 22.368 127.815 21.28 127.815 20.048C127.815 18.784 128.103 17.688 128.679 16.76C129.255 15.832 130.031 15.112 131.007 14.6C131.999 14.072 133.119 13.808 134.367 13.808C135.743 13.808 136.847 14.088 137.679 14.648C138.527 15.192 139.143 15.936 139.527 16.88C139.911 17.824 140.103 18.88 140.103 20.048C140.103 20.752 139.991 21.472 139.767 22.208C139.543 22.928 139.199 23.6 138.735 24.224C138.271 24.832 137.663 25.328 136.911 25.712C136.159 26.08 135.255 26.264 134.199 26.264ZM135.207 23.864C136.151 23.864 136.967 23.704 137.655 23.384C138.343 23.064 138.871 22.616 139.239 22.04C139.607 21.464 139.791 20.8 139.791 20.048C139.791 19.232 139.599 18.544 139.215 17.984C138.847 17.408 138.319 16.976 137.631 16.688C136.959 16.384 136.151 16.232 135.207 16.232C133.879 16.232 132.847 16.584 132.111 17.288C131.375 17.976 131.007 18.896 131.007 20.048C131.007 20.816 131.183 21.488 131.535 22.064C131.887 22.624 132.375 23.064 132.999 23.384C133.639 23.704 134.375 23.864 135.207 23.864ZM139.791 14.072H142.911V26H140.007C140.007 26 139.983 25.848 139.935 25.544C139.903 25.224 139.871 24.824 139.839 24.344C139.807 23.864 139.791 23.392 139.791 22.928V14.072ZM146.215 14.072H155.479V16.496H146.215V14.072ZM149.287 10.808H152.407V26H149.287V10.808ZM169.489 22.04H172.513C172.385 22.856 172.041 23.584 171.481 24.224C170.937 24.864 170.193 25.368 169.249 25.736C168.305 26.104 167.153 26.288 165.793 26.288C164.273 26.288 162.929 26.048 161.761 25.568C160.593 25.072 159.681 24.36 159.025 23.432C158.369 22.504 158.041 21.384 158.041 20.072C158.041 18.76 158.361 17.64 159.001 16.712C159.641 15.768 160.529 15.048 161.665 14.552C162.817 14.056 164.161 13.808 165.697 13.808C167.265 13.808 168.569 14.056 169.609 14.552C170.649 15.048 171.417 15.8 171.913 16.808C172.425 17.8 172.641 19.072 172.561 20.624H161.185C161.265 21.232 161.489 21.784 161.857 22.28C162.241 22.776 162.753 23.168 163.393 23.456C164.049 23.744 164.825 23.888 165.721 23.888C166.713 23.888 167.537 23.72 168.193 23.384C168.865 23.032 169.297 22.584 169.489 22.04ZM165.553 16.184C164.401 16.184 163.465 16.44 162.745 16.952C162.025 17.448 161.561 18.064 161.353 18.8H169.465C169.385 18 169.001 17.368 168.313 16.904C167.641 16.424 166.721 16.184 165.553 16.184Z" fill="black"/>
<rect x="0.5" y="0.5" width="180" height="32" stroke="black"/>
</svg>
