<svg width="84" height="82" viewBox="0 0 84 82" fill="none" xmlns="http://www.w3.org/2000/svg">
<path d="M62.8333 28.5337C61.3 29.187 59.6542 29.6362 57.925 29.8322C59.6917 28.8114 61.0417 27.1944 61.6833 25.2711C59.9999 26.2326 58.163 26.909 56.25 27.272C55.4453 26.4454 54.4773 25.7881 53.4049 25.3402C52.3325 24.8923 51.1782 24.6632 50.0125 24.6668C45.2917 24.6668 41.4667 28.3622 41.4667 32.9151C41.4667 33.5603 41.5417 34.1891 41.6875 34.7935C38.3014 34.6359 34.9859 33.7883 31.9527 32.3049C28.9195 30.8214 26.2351 28.7346 24.0708 26.1776C23.3107 27.4316 22.9105 28.8636 22.9125 30.3222C22.9125 33.1805 24.425 35.7122 26.7167 37.1863C25.3602 37.1446 24.0327 36.7907 22.8417 36.1532V36.2553C22.8545 38.1723 23.545 40.0256 24.7955 41.4997C26.046 42.9739 27.7792 43.9777 29.7 44.3403C28.439 44.6671 27.1195 44.7145 25.8375 44.4791C26.3964 46.1283 27.4653 47.5659 28.8959 48.5926C30.3265 49.6192 32.0478 50.1838 33.8208 50.208C30.779 52.5052 27.0443 53.7462 23.2042 53.736C22.5167 53.736 21.8375 53.6952 21.1667 53.6217C25.0853 56.0525 29.629 57.3399 34.2667 57.3335C49.9917 57.3335 58.5875 44.765 58.5875 33.8625L58.5583 32.7926C60.2346 31.6382 61.683 30.1952 62.8333 28.5337V28.5337Z" fill="white"/>
<path d="M17 8.33341C14.7899 8.33341 12.6702 9.19383 11.1074 10.7254C9.54464 12.2569 8.66667 14.3341 8.66667 16.5001V65.5001C8.66667 67.666 9.54464 69.7432 11.1074 71.2748C12.6702 72.8063 14.7899 73.6667 17 73.6667H67C69.2101 73.6667 71.3298 72.8063 72.8926 71.2748C74.4554 69.7432 75.3333 67.666 75.3333 65.5001V16.5001C75.3333 14.3341 74.4554 12.2569 72.8926 10.7254C71.3298 9.19383 69.2101 8.33341 67 8.33341H17ZM17 0.166748H67C71.4203 0.166748 75.6595 1.88758 78.7851 4.95067C81.9107 8.01376 83.6667 12.1682 83.6667 16.5001V65.5001C83.6667 69.8319 81.9107 73.9864 78.7851 77.0495C75.6595 80.1126 71.4203 81.8334 67 81.8334H17C12.5797 81.8334 8.34049 80.1126 5.21489 77.0495C2.08928 73.9864 0.333332 69.8319 0.333332 65.5001V16.5001C0.333332 12.1682 2.08928 8.01376 5.21489 4.95067C8.34049 1.88758 12.5797 0.166748 17 0.166748V0.166748Z" fill="white"/>
</svg>
