<svg width="100" height="98" viewBox="0 0 100 98" fill="none" xmlns="http://www.w3.org/2000/svg">
<path d="M61.6333 43.9978L46.35 35.3738C45.4526 34.8676 44.4352 34.6014 43.3998 34.6022C42.3644 34.6029 41.3474 34.8705 40.4508 35.3781C39.5542 35.8857 38.8096 36.6154 38.2917 37.494C37.7738 38.3727 37.5007 39.3694 37.5 40.3841V57.6239C37.4875 59.6901 38.6125 61.6011 40.4417 62.6219C41.3385 63.1353 42.3581 63.4066 43.3968 63.408C44.4354 63.4095 45.4559 63.141 46.3541 62.6301L61.6333 54.0061C62.5309 53.5004 63.2765 52.7717 63.795 51.8935C64.3135 51.0153 64.5865 50.0186 64.5865 49.004C64.5865 47.9894 64.3135 46.9927 63.795 46.1145C63.2765 45.2363 62.5309 44.5076 61.6333 44.0019V43.9978ZM59.55 50.4577L44.275 59.0858C44.0103 59.2379 43.709 59.3182 43.4021 59.3182C43.0952 59.3182 42.7938 59.2379 42.5291 59.0858C42.2643 58.9388 42.0445 58.7249 41.8928 58.4663C41.7411 58.2078 41.663 57.914 41.6666 57.6158V40.3841C41.6637 40.0865 41.7422 39.7936 41.8938 39.5358C42.0455 39.278 42.2649 39.0648 42.5291 38.9182C42.7915 38.7617 43.0928 38.6789 43.4 38.6789C43.7072 38.6789 44.0084 38.7617 44.2708 38.9182L59.55 47.5463C59.8135 47.6921 60.0327 47.9039 60.1853 48.16C60.3378 48.4162 60.4182 48.7074 60.4182 49.004C60.4182 49.3006 60.3378 49.5918 60.1853 49.848C60.0327 50.1041 59.8135 50.3159 59.55 50.4618V50.4577ZM79.1667 16.3333H20.8333C17.5191 16.3365 14.3416 17.6282 11.9981 19.9248C9.65465 22.2214 8.33662 25.3353 8.33331 28.5833V69.4166C8.33662 72.6645 9.65465 75.7784 11.9981 78.0751C14.3416 80.3717 17.5191 81.6633 20.8333 81.6666H79.1667C82.4808 81.6633 85.6583 80.3717 88.0018 78.0751C90.3453 75.7784 91.6633 72.6645 91.6667 69.4166V28.5833C91.6633 25.3353 90.3453 22.2214 88.0018 19.9248C85.6583 17.6282 82.4808 16.3365 79.1667 16.3333V16.3333ZM87.5 69.4166C87.4967 71.5815 86.6176 73.6569 85.0556 75.1877C83.4935 76.7186 81.3758 77.58 79.1667 77.5833H20.8333C18.6242 77.58 16.5065 76.7186 14.9444 75.1877C13.3823 73.6569 12.5033 71.5815 12.5 69.4166V28.5833C12.5033 26.4183 13.3823 24.343 14.9444 22.8121C16.5065 21.2813 18.6242 20.4198 20.8333 20.4166H79.1667C81.3758 20.4198 83.4935 21.2813 85.0556 22.8121C86.6176 24.343 87.4967 26.4183 87.5 28.5833V69.4166Z" fill="white"/>
</svg>
