<svg width="84" height="66" viewBox="0 0 84 66" fill="none" xmlns="http://www.w3.org/2000/svg">
<path d="M53.6333 27.9978L38.35 19.3738C37.4527 18.8676 36.4353 18.6014 35.3998 18.6022C34.3644 18.6029 33.3474 18.8705 32.4508 19.3781C31.5542 19.8857 30.8096 20.6154 30.2917 21.494C29.7738 22.3727 29.5008 23.3694 29.5 24.3841V41.6239C29.4875 43.6901 30.6125 45.6011 32.4417 46.6219C33.3385 47.1353 34.3582 47.4066 35.3968 47.408C36.4354 47.4095 37.4559 47.141 38.3542 46.6301L53.6333 38.0061C54.5309 37.5004 55.2766 36.7717 55.795 35.8935C56.3135 35.0153 56.5865 34.0186 56.5865 33.004C56.5865 31.9894 56.3135 30.9927 55.795 30.1145C55.2766 29.2363 54.5309 28.5076 53.6333 28.0019V27.9978ZM51.55 34.4577L36.275 43.0858C36.0103 43.2379 35.709 43.3182 35.4021 43.3182C35.0952 43.3182 34.7939 43.2379 34.5292 43.0858C34.2643 42.9388 34.0445 42.7249 33.8928 42.4663C33.7411 42.2078 33.663 41.914 33.6667 41.6158V24.3841C33.6638 24.0865 33.7422 23.7936 33.8939 23.5358C34.0456 23.278 34.2649 23.0648 34.5292 22.9182C34.7916 22.7617 35.0928 22.6789 35.4 22.6789C35.7072 22.6789 36.0084 22.7617 36.2708 22.9182L51.55 31.5463C51.8135 31.6921 52.0328 31.9039 52.1853 32.16C52.3379 32.4162 52.4183 32.7074 52.4183 33.004C52.4183 33.3006 52.3379 33.5918 52.1853 33.848C52.0328 34.1041 51.8135 34.3159 51.55 34.4618V34.4577ZM71.1667 0.333252H12.8333C9.51915 0.336495 6.34165 1.62816 3.99816 3.92478C1.65468 6.22139 0.336653 9.33535 0.333344 12.5833V53.4166C0.336653 56.6645 1.65468 59.7784 3.99816 62.0751C6.34165 64.3717 9.51915 65.6633 12.8333 65.6666H71.1667C74.4809 65.6633 77.6584 64.3717 80.0019 62.0751C82.3454 59.7784 83.6634 56.6645 83.6667 53.4166V12.5833C83.6634 9.33535 82.3454 6.22139 80.0019 3.92478C77.6584 1.62816 74.4809 0.336495 71.1667 0.333252V0.333252ZM79.5 53.4166C79.4967 55.5815 78.6177 57.6569 77.0556 59.1877C75.4935 60.7186 73.3758 61.58 71.1667 61.5833H12.8333C10.6242 61.58 8.50653 60.7186 6.94444 59.1877C5.38235 57.6569 4.50332 55.5815 4.50001 53.4166V12.5833C4.50332 10.4183 5.38235 8.34297 6.94444 6.81213C8.50653 5.28128 10.6242 4.41983 12.8333 4.41659H71.1667C73.3758 4.41983 75.4935 5.28128 77.0556 6.81213C78.6177 8.34297 79.4967 10.4183 79.5 12.5833V53.4166Z" fill="white"/>
</svg>
